<svg width="17" height="15" viewBox="0 0 17 15" fill="none" xmlns="http://www.w3.org/2000/svg">
<path d="M7.70883 14.85H1.99007C0.969216 14.85 0.15 14.0308 0.15 13.0099V1.99007C0.15 0.969216 0.969216 0.15 1.99007 0.15H7.70883C8.73136 0.15 9.56597 0.970879 9.56597 1.99007V3.47731C9.56597 3.79505 9.30926 4.05176 8.99152 4.05176C8.67379 4.05176 8.41707 3.79503 8.41707 3.47731V1.99007C8.41707 1.59438 8.09235 1.29886 7.70883 1.29886H1.99007C1.60039 1.29886 1.29886 1.60041 1.29886 1.99007V13.0099C1.29886 13.3996 1.60041 13.7011 1.99007 13.7011H7.70883C8.09235 13.7011 8.41707 13.4056 8.41707 13.0099V11.4928C8.41707 11.1751 8.67378 10.9184 8.99152 10.9184C9.30926 10.9184 9.56597 11.1751 9.56597 11.4928V13.0099C9.56597 14.0291 8.73136 14.85 7.70883 14.85Z" fill="#3E3D3D" stroke="#3E3D3D" stroke-width="0.3"/>
<path d="M12.47 11.1585L12.4542 11.1447C12.2283 10.937 12.2065 10.5822 12.4115 10.3474L12.4119 10.347L14.1676 8.32284L14.3829 8.07455H14.0542H4.53011C4.21237 8.07455 3.95566 7.81785 3.95566 7.50011C3.95566 7.18237 4.21239 6.92566 4.53011 6.92566H13.8925H14.2547L13.9986 6.66959L12.4347 5.10564C12.212 4.88295 12.212 4.51771 12.4347 4.29504C12.6573 4.07236 13.0226 4.07236 13.2453 4.29503L15.9896 7.0394L15.9963 7.04609L16.0038 7.05189C16.1386 7.15638 16.2227 7.31764 16.2227 7.50011C16.2227 7.66835 16.1487 7.82069 16.033 7.92619L16.0265 7.93209L16.0208 7.93871L13.2764 11.1007L13.2764 11.1007L13.2752 11.1021C13.1645 11.2329 13.0069 11.3004 12.8442 11.3004C12.7134 11.3004 12.5783 11.2533 12.47 11.1585Z" fill="#3E3D3D" stroke="#3E3D3D" stroke-width="0.3"/>
</svg>
